#!OML:ASF H:\Terrain\Patient Classification 1\PLAYGROUND\JustinFriday\JustinFriday.ASF
:FULLY-SPECIFIED
:DEGREES
3724
root 14.0924 29.3887 49.4179 176.173 -21.8329 -169.717
lowerback 27.265 1.12525 6.48678
upperback -0.355778 3.91673 7.62332
thorax -15.1848 1.21905 3.37917
lowerneck 2.53247 -10.9195 4.99002
upperneck 16.326 -15.7058 -4.72029
head 4.18785 -8.14121 -2.79568
rclavicle -4.69132e-014 1.59028e-014
rhumerus 62.0861 -17.8968 -63.6253
rradius 76.0318
rwrist -162.265
rhand -25.6727 22.2922
rfingers 7.12502
rthumb 0.861871 352.314
lclavicle -4.69132e-014 1.59028e-014
lhumerus 76.8713 -20.0231 86.7769
lradius 54.373
lwrist -20.5575
lhand 12.5097 3.53778
lfingers 7.12502
lthumb 37.5027 29.4706
rfemur -88.1089 -22.1056 37.3523
rtibia 99.8562
rfoot -37.1165 -4.49977
rtoes 6.60839
lfemur -90.9761 -4.10508 -17.2114
ltibia 117.97
lfoot -197.277 180.517
ltoes 4.25506
3725
root 14.0932 29.3965 49.4002 175.655 -21.7783 -169.584
lowerback 27.6313 1.12025 6.55385
upperback -0.275485 3.95008 7.72361
thorax -15.274 1.21681 3.4394
lowerneck 2.51439 -10.9638 4.88133
upperneck 16.5847 -15.7978 -4.82555
head 4.2817 -8.20498 -2.8339
rclavicle -9.26337e-014 6.99722e-014
rhumerus 61.7216 -17.8589 -63.009
rradius 76.0346
rwrist -162.393
rhand -25.8961 22.4062
rfingers 7.12502
rthumb 0.646072 352.427
lclavicle -9.26337e-014 6.99722e-014
lhumerus 76.607 -19.9285 86.8232
lradius 54.4959
lwrist -20.5933
lhand 12.3737 3.44562
lfingers 7.12502
lthumb 37.3741 29.4125
rfemur -87.3469 -22.1378 37.2406
rtibia 99.8153
rfoot -37.3235 -4.84174
rtoes 5.65477
lfemur -93.2444 -3.8011 -17.6191
ltibia 121.004
lfoot -198.063 180.77
ltoes 5.31576
3726
root 14.096 29.4156 49.3911 175.012 -21.6721 -169.286
lowerback 28.0606 1.10721 6.74217
upperback -0.191403 4.01424 7.86158
thorax -15.3819 1.21455 3.46484
lowerneck 2.36277 -10.9602 4.87421
upperneck 16.8693 -15.8238 -4.94855
head 4.40423 -8.22949 -2.9066
rclavicle -1.07344e-014 6.67916e-014
rhumerus 61.502 -17.7781 -62.5036
rradius 75.9575
rwrist -162.547
rhand -25.978 22.4465
rfingers 7.12502
rthumb 0.567029 352.468
lclavicle -1.07344e-014 6.67916e-014
lhumerus 76.3041 -19.8564 86.8803
lradius 54.6481
lwrist -20.6716
lhand 12.4086 3.33814
lfingers 7.12502
lthumb 37.4071 29.2963
rfemur -86.6452 -22.5706 37.6251
rtibia 99.7242
rfoot -37.508 -4.71865
rtoes 4.92275
lfemur -95.3518 -3.44253 -17.8637
ltibia 123.658
lfoot -198.578 180.814
ltoes 6.23503
3727
root 14.1001 29.4349 49.3816 174.432 -21.5031 -169.13
lowerback 28.4623 1.12785 6.79392
upperback -0.0737506 4.07057 7.92791
thorax -15.4392 1.22158 3.48615
lowerneck 2.16955 -10.9218 4.98291
upperneck 17.1013 -15.7979 -5.02892
head 4.51306 -8.21715 -2.98287
rclavicle -9.93923e-016 -5.40694e-014
rhumerus 61.253 -17.7414 -61.9674
rradius 75.8833
rwrist -162.806
rhand -25.9223 22.4896
rfingers 7.12502
rthumb 0.620775 352.511
lclavicle -9.93923e-016 -5.40694e-014
lhumerus 76.1234 -19.7977 86.8081
lradius 54.7477
lwrist -20.7004
lhand 12.4421 3.38607
lfingers 7.12502
lthumb 37.4387 29.3358
rfemur -85.947 -22.7781 37.7278
rtibia 99.6908
rfoot -37.6078 -4.5134
rtoes 5.13547
lfemur -97.5176 -3.16019 -18.237
ltibia 126.031
lfoot -198.876 180.737
ltoes 6.50846
3728
root 14.1033 29.4469 49.3658 173.978 -21.3128 -169.227
lowerback 28.813 1.19193 6.61253
upperback 0.0837634 4.09741 7.91491
thorax -15.4357 1.23792 3.55449
lowerneck 1.75465 -10.9416 5.07283
upperneck 17.9018 -15.827 -5.30284
head 4.30646 -8.2584 -2.86822
rclavicle 5.36719e-015 1.27222e-014
rhumerus 60.9111 -17.7368 -61.4462
rradius 75.9178
rwrist -163.127
rhand -25.8424 22.6292
rfingers 7.12502
rthumb 0.697946 352.651
lclavicle 5.36719e-015 1.27222e-014
lhumerus 76.1346 -19.7018 86.5328
lradius 54.7317
lwrist -20.6103
lhand 12.4376 3.51105
lfingers 7.12502
lthumb 37.4345 29.4619
rfemur -85.3538 -22.8168 37.4716
rtibia 99.755
rfoot -37.5435 -4.19028
rtoes 5.82843
lfemur -99.8273 -2.95268 -18.8709
ltibia 128.185
lfoot -198.947 180.242
ltoes 6.65666
3729
root 14.1063 29.4613 49.3531 173.417 -21.0966 -169.071
lowerback 29.2505 1.22157 6.68082
upperback 0.175013 4.17732 7.9638
thorax -15.5358 1.25242 3.5382
lowerneck 2.01618 -11.0503 4.82984
upperneck 17.8562 -16.0164 -5.03164
head 4.28642 -8.35521 -2.73854
rclavicle 3.89618e-014 -5.40694e-014
rhumerus 60.6028 -17.6677 -61.0968
rradius 75.9809
rwrist -163.324
rhand -25.8251 22.7262
rfingers 7.12502
rthumb 0.71463 352.748
lclavicle 3.89618e-014 -5.40694e-014
lhumerus 75.9999 -19.6414 86.4259
lradius 54.7047
lwrist -20.6473
lhand 12.3845 3.3081
lfingers 7.12502
lthumb 37.3843 29.2722
rfemur -84.8046 -23.1712 37.7119
rtibia 99.7827
rfoot -37.362 -3.59155
rtoes 6.16384
lfemur -102.273 -2.70957 -19.1462
ltibia 130.057
lfoot -198.701 179.086
ltoes 7.74077
3730
root 14.1107 29.4815 49.3444 172.806 -20.855 -168.793
lowerback 29.6989 1.25555 6.84296
upperback 0.255496 4.29747 8.07808
thorax -15.6515 1.27456 3.5291
lowerneck 2.41971 -11.0987 4.5873
upperneck 17.2627 -16.1421 -4.5811
head 4.58502 -8.39756 -2.77514
rclavicle -1.33186e-014 6.04305e-014
rhumerus 60.4133 -17.5813 -60.7895
rradius 75.9712
rwrist -163.494
rhand -25.8222 22.737
rfingers 7.12502
rthumb 0.717516 352.759
lclavicle -1.33186e-014 6.04305e-014
lhumerus 75.8153 -19.6079 86.4175
lradius 54.6508
lwrist -20.7052
lhand 12.075 3.05708
lfingers 7.12502
lthumb 37.0917 29.0978
rfemur -84.1084 -23.3581 37.9764
rtibia 99.7513
rfoot -37.139 -3.44125
rtoes 5.92835
lfemur -104.731 -2.52242 -19.2036
ltibia 131.54
lfoot -198.321 177.663
ltoes 9.33543
3731
root 14.1124 29.4999 49.3356 172.34 -20.715 -168.731
lowerback 29.9852 1.28501 6.83849
upperback 0.401861 4.32712 8.13603
thorax -15.618 1.27603 3.58177
lowerneck 2.22056 -11.0288 4.64671
upperneck 17.3318 -16.0314 -4.72737
head 4.63485 -8.34408 -2.85227
rclavicle -1.96797e-014 3.97569e-014
rhumerus 60.2755 -17.5142 -60.5994
rradius 75.9914
rwrist -163.678
rhand -25.6121 22.7134
rfingers 7.12502
rthumb 0.920364 352.736
lclavicle -1.96797e-014 3.97569e-014
lhumerus 75.7629 -19.5484 86.267
lradius 54.6136
lwrist -20.703
lhand 11.7871 2.85692
lfingers 7.12502
lthumb 36.8193 28.9679
rfemur -83.5886 -23.6082 38.0585
rtibia 99.7535
rfoot -36.9295 -3.67376
rtoes 5.24096
lfemur -107.014 -2.74533 -19.5383
ltibia 132.637
lfoot -198.145 176.824
ltoes 9.6619
3732
root 14.1091 29.5157 49.3272 171.993 -20.71 -168.848
lowerback 30.1576 1.25674 6.76499
upperback 0.546581 4.24404 8.08133
thorax -15.5231 1.23891 3.59099
lowerneck 2.19629 -11.039 4.77898
upperneck 17.2449 -16.0234 -4.78466
head 4.59068 -8.33295 -2.88493
rclavicle 3.02153e-014 9.85972e-014
rhumerus 60.0726 -17.4274 -60.6224
rradius 76.12
rwrist -163.664
rhand -25.3902 22.6598
rfingers 7.12502
rthumb 1.13472 352.683
lclavicle 3.02153e-014 9.85972e-014
lhumerus 75.6385 -19.5348 86.1443
lradius 54.708
lwrist -20.7512
lhand 11.7067 2.66142
lfingers 7.12502
lthumb 36.7432 28.7918
rfemur -83.1668 -23.8364 37.8435
rtibia 99.7879
rfoot -36.6352 -3.86473
rtoes 4.7015
lfemur -108.981 -3.4167 -20.094
ltibia 133.313
lfoot -198.07 176.543
ltoes 8.66988
3733
root 14.1046 29.5252 49.3112 171.529 -20.6104 -168.864
lowerback 30.4646 1.23425 6.788
upperback 0.661165 4.21756 8.03498
thorax -15.519 1.21401 3.5356
lowerneck 2.44161 -11.064 4.7512
upperneck 17.0698 -16.055 -4.63199
head 4.49386 -8.34443 -2.79791
rclavicle 5.96354e-015 -8.26944e-014
rhumerus 59.884 -17.3295 -60.661
rradius 76.0929
rwrist -163.668
rhand -25.1826 22.5462
rfingers 7.12502
rthumb 1.33519 352.571
lclavicle 5.96354e-015 -8.26944e-014
lhumerus 75.4102 -19.5647 86.1153
lradius 54.8124
lwrist -20.8862
lhand 11.648 2.66135
lfingers 7.12502
lthumb 36.6877 28.8059
rfemur -82.8089 -24.4533 38.0058
rtibia 99.8526
rfoot -36.3522 -3.47545
rtoes 4.89704
lfemur -110.656 -3.9707 -20.5549
ltibia 133.659
lfoot -198.086 176.205
ltoes 6.92693
3734
root 14.103 29.542 49.2977 171.071 -20.3884 -168.918
lowerback 30.8541 1.2851 6.68307
upperback 0.723413 4.26887 8.02572
thorax -15.634 1.23237 3.55868
lowerneck 2.75735 -11.0864 4.74948
upperneck 16.8744 -16.0706 -4.56582
head 4.36731 -8.35366 -2.73487
rclavicle -3.51849e-014 -4.92986e-014
rhumerus 59.481 -17.1868 -60.6845
rradius 76.3052
rwrist -163.816
rhand -24.9896 22.4483
rfingers 7.12502
rthumb 1.52164 352.474
lclavicle -3.51849e-014 -4.92986e-014
lhumerus 75.0916 -19.5807 86.0895
lradius 54.8843
lwrist -20.9743
lhand 11.54 2.78797
lfingers 7.12502
lthumb 36.5854 28.9585
rfemur -82.2349 -24.5139 37.9079
rtibia 99.7954
rfoot -35.9781 -3.87808
rtoes 4.1388
lfemur -112.209 -4.39552 -20.9157
ltibia 133.657
lfoot -198.089 175.543
ltoes 6.11071
3735
root 14.0985 29.5621 49.2871 170.746 -20.2381 -169.035
lowerback 31.0886 1.32323 6.53197
upperback 0.76967 4.2779 8.01182
thorax -15.6994 1.24142 3.6189
lowerneck 2.78635 -11.0008 4.62346
upperneck 16.9679 -15.9789 -4.4953
head 4.41804 -8.31625 -2.6992
rclavicle 2.78299e-014 -6.36111e-015
rhumerus 59.1283 -17.0325 -60.7056
rradius 76.445
rwrist -163.9
rhand -24.8518 22.2629
rfingers 7.12502
rthumb 1.65468 352.29
lclavicle 2.78299e-014 -6.36111e-015
lhumerus 74.7479 -19.6061 86.1134
lradius 54.9838
lwrist -21.0307
lhand 11.6229 2.83693
lfingers 7.12502
lthumb 36.664 28.9875
rfemur -81.7351 -24.7122 37.7109
rtibia 99.8323
rfoot -35.8712 -3.26121
rtoes 4.76698
lfemur -113.847 -5.02757 -21.183
ltibia 133.359
lfoot -197.883 174.751
ltoes 6.75597
3736
root 14.0914 29.5877 49.2795 170.292 -20.0861 -168.88
lowerback 31.3459 1.29038 6.71758
upperback 0.829796 4.29988 8.03471
thorax -15.7283 1.22419 3.53609
lowerneck 2.58803 -10.8974 4.58895
upperneck 17.2336 -15.863 -4.5929
head 4.55403 -8.26872 -2.7621
rclavicle -2.38542e-015 3.18055e-014
rhumerus 58.8315 -16.8839 -60.8309
rradius 76.5832
rwrist -163.816
rhand -24.8548 22.1267
rfingers 7.12502
rthumb 1.65179 352.153
lclavicle -2.38542e-015 3.18055e-014
lhumerus 74.3817 -19.678 86.1672
lradius 55.0572
lwrist -21.1977
lhand 11.6704 2.75156
lfingers 7.12502
lthumb 36.7089 28.8907
rfemur -81.103 -25.0028 37.8141
rtibia 99.719
rfoot -35.7603 -2.99627
rtoes 4.80207
lfemur -115.221 -5.49845 -21.2959
ltibia 132.712
lfoot -197.722 174.08
ltoes 3.18924
